<?xml version="1.0" encoding="UTF-8" standalone="no"?><!DOCTYPE svg PUBLIC "-//W3C//DTD SVG 1.1//EN" "http://www.w3.org/Graphics/SVG/1.1/DTD/svg11.dtd"><svg width="100%" height="100%" viewBox="0 0 100 100" version="1.1" xmlns="http://www.w3.org/2000/svg" xmlns:xlink="http://www.w3.org/1999/xlink" xml:space="preserve" xmlns:serif="http://www.serif.com/" style="fill-rule:evenodd;clip-rule:evenodd;stroke-linejoin:round;stroke-miterlimit:2;"><path d="M29.072,84.464l41.826,0c7.215,0 11.087,-3.754 11.087,-10.941l0,-36.635l-63.972,0l0,36.635c0,7.216 3.872,10.941 11.058,10.941Zm8.271,-34.318c-1.496,0 -2.493,-1.027 -2.493,-2.581l0,-1.144c0,-1.555 0.997,-2.552 2.493,-2.552l25.313,0c1.525,0 2.523,0.997 2.523,2.552l0,1.144c0,1.554 -0.997,2.581 -2.523,2.581l-25.313,0Zm-18.713,-17.951l62.71,0c4.048,0 6.16,-2.435 6.16,-6.453l0,-3.754c0,-4.018 -2.112,-6.453 -6.16,-6.453l-62.71,0c-3.842,0 -6.13,2.434 -6.13,6.453l0,3.754c0,4.018 2.112,6.453 6.13,6.453Z" style="fill:#444a2e;fill-rule:nonzero;"/></svg>